<svg id="Layer_1" data-name="Layer 1" xmlns="http://www.w3.org/2000/svg" viewBox="0 0 32 32"><defs><style>.cls-1{fill:#939291;}</style></defs><path class="cls-1" d="M28.79,19,22.9,14.85a.45.45,0,0,0-.42,0,.42.42,0,0,0-.19.37L23,22.36a.37.37,0,0,0,.39.36.32.32,0,0,0,.23-.09L25,21.47l1.42,2.85a.38.38,0,0,0,.23.2h.1a.46.46,0,0,0,.2-.05l1.76-1a.36.36,0,0,0,.18-.24.35.35,0,0,0-.05-.3l-1.72-2.67,1.72-.61a.44.44,0,0,0,.25-.31.38.38,0,0,0-.16-.37Zm-2.49.74a.37.37,0,0,0-.23.23.37.37,0,0,0,0,.34L27.91,23l-1.07.61L25.38,20.7a.35.35,0,0,0-.27-.2H25a.36.36,0,0,0-.24.09l-1.19,1L23.13,16l4.62,3.24Z"/><path class="cls-1" d="M21.18,16.44H4.92A1.24,1.24,0,0,1,3.68,15.2V9.5A1.25,1.25,0,0,1,4.91,8.24H26.13a1.25,1.25,0,0,1,1.25,1.25h0v5.7a1.24,1.24,0,0,1-.39.9.38.38,0,0,0,0,.53h0a.38.38,0,0,0,.54,0,2,2,0,0,0,.63-1.45V9.5a2,2,0,0,0-2-2H4.92a2,2,0,0,0-2,2v5.7a2,2,0,0,0,2,2H21.14a.39.39,0,0,0,.44-.33.38.38,0,0,0-.32-.44h-.08Z"/></svg>