<svg id="Layer_1" data-name="Layer 1" xmlns="http://www.w3.org/2000/svg" viewBox="0 0 32 32"><defs><style>.cls-1{fill:#949291;}</style></defs><path class="cls-1" d="M26.45,15.08H13.26a.73.73,0,0,0-.64.8.74.74,0,0,0,.64.65H26.45a.73.73,0,0,0,.72-.73A.72.72,0,0,0,26.45,15.08Z"/><path class="cls-1" d="M26.45,6.06H13.26a.72.72,0,0,0-.64.8.73.73,0,0,0,.64.64H26.45a.73.73,0,0,0,.72-.73A.71.71,0,0,0,26.45,6.06Z"/><path class="cls-1" d="M26.45,24.11H13.26a.71.71,0,0,0-.71.71.72.72,0,0,0,.71.73H26.45a.73.73,0,0,0,.72-.73.7.7,0,0,0-.7-.71h0Z"/><path class="cls-1" d="M4.83,7.1V5.33a.42.42,0,0,1,.42-.41H7a.39.39,0,0,1,.29.13L9.14,6.88a.4.4,0,0,1,0,.56l0,0L7.36,9.24a.4.4,0,0,1-.56,0l0,0L5,7.39A.36.36,0,0,1,4.83,7.1Zm1-1.62a.4.4,0,0,0-.41.39v0a.4.4,0,0,0,.4.41h0a.41.41,0,0,0,0-.82Z"/><path class="cls-1" d="M4.83,16V14.19a.42.42,0,0,1,.42-.41H7a.38.38,0,0,1,.29.12l1.83,1.84a.39.39,0,0,1,0,.56l0,0L7.37,18.09a.4.4,0,0,1-.56,0l0,0L5,16.25A.36.36,0,0,1,4.83,16Zm1-1.62a.4.4,0,0,0-.41.39v0a.4.4,0,0,0,.4.41h0a.41.41,0,0,0,.41-.41h0a.4.4,0,0,0-.4-.41Z"/><path class="cls-1" d="M4.83,24.81V23a.42.42,0,0,1,.42-.4H7a.35.35,0,0,1,.29.12l1.83,1.83a.4.4,0,0,1,0,.57l0,0L7.37,27a.4.4,0,0,1-.56,0l0,0L5,25.11A.38.38,0,0,1,4.83,24.81Zm1-1.62a.4.4,0,0,0-.41.39v0a.41.41,0,0,0,.4.42h0a.41.41,0,0,0,.41-.42.41.41,0,0,0-.4-.41Z"/></svg>