<svg id="Layer_1" data-name="Layer 1" xmlns="http://www.w3.org/2000/svg" viewBox="0 0 32 32"><defs><style>.cls-1{fill:#939291;}</style></defs><path class="cls-1" d="M21.17,25.41a.45.45,0,0,0-.63-.14A9.08,9.08,0,0,1,8.08,12.6a.47.47,0,0,0-.79-.51A10,10,0,0,0,21.05,26a.45.45,0,0,0,.13-.62Z"/><path class="cls-1" d="M22.75,24a.46.46,0,0,0-.65,0h0a.46.46,0,0,0,0,.65.5.5,0,0,0,.33.14.53.53,0,0,0,.33-.15h0A.47.47,0,0,0,22.75,24Z"/><path class="cls-1" d="M24.59,11.65a.45.45,0,0,0,.32.14.47.47,0,0,0,.33-.14l.79-.78a1.41,1.41,0,0,0,0-2L24.36,7.26a1.39,1.39,0,0,0-1-.41,1.41,1.41,0,0,0-1,.41l-.79.79a.44.44,0,0,0,0,.63l0,0,.21.22-.55.55A10,10,0,0,0,17.37,7.9V7.11h1a.45.45,0,0,0,.45-.45V4.57a.44.44,0,0,0-.43-.45H12.8a.44.44,0,0,0-.46.44h0v2a.46.46,0,0,0,.45.46h1v.79a9.77,9.77,0,0,0-3.7,1.48A.46.46,0,0,0,10,10h0a.48.48,0,0,0,.64.13A9.07,9.07,0,0,1,23.31,22.45a.46.46,0,0,0,.15.63.48.48,0,0,0,.24.07.44.44,0,0,0,.39-.22A10,10,0,0,0,23.82,12l.55-.55ZM16.45,7.71H14.71V7.06h1.74Zm-2.2-1.57h-1V5H18v1.1H14.25Zm9,5.1c-.19-.22-.39-.43-.59-.64s-.43-.4-.65-.59l.46-.46,1.24,1.23Zm-.45-2.67h0l-.22-.21L23,7.92a.43.43,0,0,1,.33-.15.49.49,0,0,1,.34.15l1.64,1.63a.49.49,0,0,1,0,.69l-.44.44-.21-.22h0Z"/><path class="cls-1" d="M15.6,11.15a.45.45,0,0,0-.45.46v1a.46.46,0,0,0,.45.46.47.47,0,0,0,.47-.46v-1A.47.47,0,0,0,15.6,11.15Z"/><path class="cls-1" d="M20.21,13.05a.48.48,0,0,0-.65,0,.47.47,0,0,0-.13.34.45.45,0,0,0,.45.45.47.47,0,0,0,.33-.13.45.45,0,0,0,.14-.32A.48.48,0,0,0,20.21,13.05Z"/><path class="cls-1" d="M21.66,17.21h-1a.46.46,0,1,0,0,.91h1a.46.46,0,1,0,0-.91Z"/><path class="cls-1" d="M20.21,21.62a.47.47,0,0,0-.33-.13.45.45,0,0,0-.45.46.46.46,0,0,0,.78.33.46.46,0,0,0,0-.66Z"/><path class="cls-1" d="M15.6,22.25a.46.46,0,0,0-.45.46v1a.45.45,0,0,0,.45.46.47.47,0,0,0,.47-.46v-1A.47.47,0,0,0,15.6,22.25Z"/><path class="cls-1" d="M11.64,21.62a.46.46,0,0,0-.64,0,.47.47,0,0,0,0,.66.46.46,0,0,0,.31.13.46.46,0,0,0,.32-.13.46.46,0,0,0,0-.66Z"/><path class="cls-1" d="M10.56,17.21h-1a.46.46,0,0,0,0,.91h1a.46.46,0,1,0,0-.91Z"/><path class="cls-1" d="M11.64,13.05a.46.46,0,0,0-.32-.13.48.48,0,0,0-.32.13.46.46,0,0,0,0,.64l0,0a.42.42,0,0,0,.32.13.46.46,0,0,0,.46-.45A.48.48,0,0,0,11.64,13.05Z"/><path class="cls-1" d="M19.19,14.08a.45.45,0,0,0-.56-.07l-3.8,2.29-.13.09a1.57,1.57,0,0,0,.91,2.85,1.6,1.6,0,0,0,1.27-.65l.09-.15,2.3-3.8A.44.44,0,0,0,19.19,14.08Zm-3,3.88V18A.65.65,0,0,1,15,17.67a.61.61,0,0,1,.28-.53l.07,0a.6.6,0,0,1,.29-.08.65.65,0,0,1,.65.65A.61.61,0,0,1,16.17,18Zm.72-1.18a1.52,1.52,0,0,0-.4-.4l1-.62Z"/><path class="cls-1" d="M15.6,9.7a8,8,0,1,0,7.93,8v0A8,8,0,0,0,15.6,9.7Zm0,15a7.09,7.09,0,1,1,7.08-7.08h0A7.08,7.08,0,0,1,15.6,24.71Z"/><path class="cls-1" d="M9.22,10.58a.44.44,0,0,0-.79.29.48.48,0,0,0,.15.33.46.46,0,0,0,.64,0l0,0a.43.43,0,0,0,.13-.3A.44.44,0,0,0,9.22,10.58Z"/></svg>