<svg id="Layer_1" data-name="Layer 1" xmlns="http://www.w3.org/2000/svg" viewBox="0 0 32 32"><defs><style>.cls-1{fill:#949291;}</style></defs><path class="cls-1" d="M28.63,19.28l-5.89-4.15a.45.45,0,0,0-.42,0,.4.4,0,0,0-.19.37l.71,7.14a.37.37,0,0,0,.38.36h0a.35.35,0,0,0,.23-.09l1.38-1.16,1.42,2.85a.36.36,0,0,0,.23.2h.1a.49.49,0,0,0,.2-.05l1.76-1a.4.4,0,0,0,.18-.24.35.35,0,0,0-.05-.3L27,20.54l1.72-.61a.49.49,0,0,0,.25-.31.38.38,0,0,0-.16-.37ZM26.14,20a.33.33,0,0,0-.23.23.34.34,0,0,0,0,.34l1.84,2.69-1.07.61L25.22,21a.35.35,0,0,0-.27-.2h-.11a.34.34,0,0,0-.24.09l-1.19,1L23,16.28l4.62,3.24Z"/><path class="cls-1" d="M21,16.72H4.76a1.24,1.24,0,0,1-1.24-1.24h0V9.78A1.24,1.24,0,0,1,4.75,8.52H26a1.25,1.25,0,0,1,1.25,1.25h0v5.7a1.28,1.28,0,0,1-.39.9.37.37,0,0,0,0,.53h0a.37.37,0,0,0,.53,0h0A2,2,0,0,0,28,15.45V9.78a2,2,0,0,0-2-2H4.76a2,2,0,0,0-2,2v5.7a2,2,0,0,0,2,2H21a.39.39,0,0,0,.44-.33.39.39,0,0,0-.31-.44H21Z"/><rect class="cls-1" x="15.25" y="8" width="0.5" height="9"/><rect class="cls-1" x="16.25" y="7.74" width="0.1" height="2.15" transform="translate(22.23 26.36) rotate(-137.08)"/><rect class="cls-1" x="19.27" y="6.58" width="0.1" height="10.57" transform="translate(25.38 33.71) rotate(-137.08)"/><rect class="cls-1" x="18.75" y="6.77" width="0.1" height="9.16" transform="translate(24.83 32.46) rotate(-137.08)"/><rect class="cls-1" x="18.23" y="6.95" width="0.1" height="7.75" transform="translate(24.29 31.21) rotate(-137.08)"/><rect class="cls-1" x="17.71" y="7.14" width="0.1" height="6.33" transform="translate(23.74 29.96) rotate(-137.08)"/><rect class="cls-1" x="17.25" y="7.32" width="0.1" height="4.97" transform="translate(23.28 28.77) rotate(-137.08)"/><rect class="cls-1" x="16.76" y="7.55" width="0.1" height="3.56" transform="translate(22.77 27.61) rotate(-137.08)"/><rect class="cls-1" x="23.57" y="6.93" width="0.1" height="11.36" transform="translate(32.33 37.93) rotate(-137.08)"/><rect class="cls-1" x="22.57" y="6.93" width="0.1" height="11.36" transform="translate(30.59 37.25) rotate(-137.08)"/><rect class="cls-1" x="21.78" y="6.39" width="0.1" height="11.99" transform="translate(29.39 36.32) rotate(-137.08)"/><rect class="cls-1" x="20.78" y="6.39" width="0.1" height="11.99" transform="translate(27.66 35.64) rotate(-137.08)"/><rect class="cls-1" x="19.78" y="6.39" width="0.1" height="11.99" transform="translate(25.93 34.95) rotate(-137.08)"/><rect class="cls-1" x="26" y="12.96" width="0.1" height="4.24" transform="translate(34.85 43.86) rotate(-137.08)"/><rect class="cls-1" x="25.52" y="11.77" width="0.1" height="5.65" transform="translate(34.35 42.69) rotate(-137.08)"/><rect class="cls-1" x="25.3" y="10.63" width="0.1" height="6.39" transform="translate(34.5 41.21) rotate(-137.08)"/><rect class="cls-1" x="24.52" y="8.67" width="0.1" height="9.84" transform="translate(33.29 40.28) rotate(-137.08)"/><rect class="cls-1" x="23.8" y="8.08" width="0.1" height="10.57" transform="translate(32.22 39.39) rotate(-137.08)"/><rect class="cls-1" x="26.26" y="14.01" width="0.1" height="3.56" transform="translate(34.83 45.27) rotate(-137.08)"/></svg>