<svg id="Layer_1" data-name="Layer 1" xmlns="http://www.w3.org/2000/svg" viewBox="0 0 32 32"><defs><style>.cls-1{fill:#929292;}</style></defs><path class="cls-1" d="M20.63,12.33a1.77,1.77,0,0,1,.46,0,1.53,1.53,0,0,0,0-.87c-.11-.54-.26-.86-.58-.81s-.32.44-.21,1A2,2,0,0,0,20.63,12.33Z"/><path class="cls-1" d="M18,12.75c.22.1.36.17.41.11s0-.1,0-.19a1.27,1.27,0,0,0-.57-.46,1.59,1.59,0,0,0-1.53.18c-.15.11-.29.26-.27.35a.08.08,0,0,0,.08.06c.13,0,.56-.2,1.05-.23A1.93,1.93,0,0,1,18,12.75Z"/><path class="cls-1" d="M17.51,13a1.05,1.05,0,0,0-.55.23.35.35,0,0,0-.14.22s0,0,0,0,0,0,.05,0a.93.93,0,0,0,.21-.06,1.87,1.87,0,0,1,.93-.09c.15,0,.22,0,.25,0s0,0,0-.09A.84.84,0,0,0,17.51,13Z"/><path class="cls-1" d="M19.73,14c.2.09.41.06.48-.09a.35.35,0,0,0-.23-.43.35.35,0,0,0-.48.08C19.43,13.66,19.53,13.85,19.73,14Z"/><path class="cls-1" d="M21,12.84c-.16,0-.29.18-.29.39a.36.36,0,0,0,.28.41c.16,0,.29-.18.3-.4S21.15,12.84,21,12.84Z"/><path class="cls-1" d="M10.25,16.8c0-.05-.1,0-.17,0l-.14,0a.32.32,0,0,1-.28-.14.52.52,0,0,1,0-.47.79.79,0,0,0,0-.09,1.37,1.37,0,0,0,.1-1.22,1.07,1.07,0,0,0-1.75-.28,1.33,1.33,0,0,0-.34,1.11c0,.07.07.09.1.09s.14,0,.2-.18l0,0a1.49,1.49,0,0,1,.14-.35.67.67,0,0,1,.4-.28.65.65,0,0,1,.49.1.61.61,0,0,1,.24.75,1.87,1.87,0,0,0-.12.67.66.66,0,0,0,.59.69.49.49,0,0,0,.48-.24C10.29,16.85,10.27,16.81,10.25,16.8Z"/><path class="cls-1" d="M25,15.93s-.07-.27-.16-.55a5.09,5.09,0,0,0-.18-.48A1.71,1.71,0,0,0,25,13.64a1.57,1.57,0,0,0-.46-.89,3.75,3.75,0,0,0-1.63-.81l-.42-.12s0-1,0-1.39a4.85,4.85,0,0,0-.18-1.23,3.44,3.44,0,0,0-.85-1.52A5.16,5.16,0,0,0,23.1,4.41c0-1.95-2.4-2.54-5.36-1.32l-.62.27S16,2.25,16,2.23C12.6-.71,2.06,11,5.43,13.85l.74.62A3.63,3.63,0,0,0,6,16.14,3.28,3.28,0,0,0,7.1,18.25a3.47,3.47,0,0,0,2.23.9,8.56,8.56,0,0,0,7.82,5c3.76.11,6.93-1.66,8.25-4.83a6.6,6.6,0,0,0,.45-2.11C25.85,16.29,25.35,15.93,25,15.93ZM9.62,18.3a2.07,2.07,0,0,1-.35,0,2.72,2.72,0,0,1-2.49-2.27,2.24,2.24,0,0,1,1.77-2.62,2,2,0,0,1,.51,0,2.17,2.17,0,0,1,1.91,2C11.17,16.76,10.85,18.09,9.62,18.3ZM8.35,12.63A2.92,2.92,0,0,0,6.52,13.8a5.17,5.17,0,0,1-.78-.75c-.65-1.23.71-3.64,1.66-5,2.35-3.35,6-5.89,7.73-5.43a6.71,6.71,0,0,1,1.2,1.14A24.05,24.05,0,0,0,13.05,6,14.89,14.89,0,0,0,8.35,12.63ZM20.29,17.8a.08.08,0,0,0,0-.07.06.06,0,0,0-.07-.05,8.08,8.08,0,0,1-3.47-.35c.19-.6.68-.39,1.41-.33a10.36,10.36,0,0,0,3.4-.36,7.66,7.66,0,0,0,2.54-1.27,4.91,4.91,0,0,1,.36,1.21.63.63,0,0,1,.37.07c.16.1.28.3.2.84A4.7,4.7,0,0,1,23.78,20a5.48,5.48,0,0,1-1.56,1.16,6.13,6.13,0,0,1-1,.43c-2.67.87-5.4-.09-6.28-2.15a3.41,3.41,0,0,1-.18-.48,4.28,4.28,0,0,1,.94-4h0a.35.35,0,0,0,.12-.24.43.43,0,0,0-.09-.22c-.35-.51-1.56-1.37-1.31-3a2.27,2.27,0,0,1,2.19-2l.25,0c.42,0,.79.08,1.14.09A2.26,2.26,0,0,0,19.72,9a1.4,1.4,0,0,1,.66-.37.77.77,0,0,1,.25,0,.84.84,0,0,1,.43.14c.5.33.57,1.13.59,1.72,0,.34.06,1.15.07,1.38,0,.53.17.61.46.7l.52.15a3,3,0,0,1,1.3.62.84.84,0,0,1,.23.46c.08.57-.44,1.27-1.81,1.9a9.14,9.14,0,0,1-4.57.73l-.44-.05c-1-.13-1.58,1.17-1,2.05a3.15,3.15,0,0,0,2.5.95,6.64,6.64,0,0,0,5-1.93l.05-.08c0-.05,0-.08,0-.05a8.57,8.57,0,0,1-5.78,1.46,3.26,3.26,0,0,1-.63-.17,1.11,1.11,0,0,1-.79-.83A5.2,5.2,0,0,0,20.29,17.8Zm-3.44-.41ZM12.69,8a9.9,9.9,0,0,1,2.78-2.27,0,0,0,0,1,0,.05,2.92,2.92,0,0,0-.26.63,0,0,0,0,0,.06,0,5.37,5.37,0,0,1,2.44-.86s.06,0,0,.07a2.33,2.33,0,0,0-.39.38s0,.06,0,.06a4.71,4.71,0,0,1,2.05.54,0,0,0,0,1,0,.08,8.45,8.45,0,0,0-3.7,0,8.67,8.67,0,0,0-3,1.33S12.66,8.08,12.69,8Z"/><path class="cls-1" d="M7.87,27.63a.8.8,0,0,0-.72.53c-.05.12-.06.21-.11.21s0-.08-.06-.26a.66.66,0,0,0-.68-.48.8.8,0,0,0-.71.57c-.06.14-.06.17-.1.17s0-.11,0-.23a1.25,1.25,0,0,0,0-.45H4.83v2.59h.94V29c0-.25.11-.58.29-.58s.25.17.25.47v1.4h1V29c0-.23.09-.58.29-.58s.25.23.25.47v1.4h.93V28.76C8.73,28.08,8.49,27.63,7.87,27.63Z"/><path class="cls-1" d="M23.86,27.63a.8.8,0,0,0-.71.53c0,.12-.07.21-.11.21s0-.1-.07-.26a.63.63,0,0,0-.67-.48.8.8,0,0,0-.71.57c-.06.14-.06.17-.11.17s0-.11,0-.23a1.14,1.14,0,0,0,0-.45h-.69v2.59h.94V29c0-.25.1-.58.29-.58s.25.17.25.47v1.4h1V29c0-.23.09-.58.29-.58s.25.23.25.47v1.4h.93V28.76C24.73,28.08,24.49,27.63,23.86,27.63Z"/><path class="cls-1" d="M10.34,27.63a3,3,0,0,0-1.24.26v.78a2.56,2.56,0,0,1,1-.33c.37,0,.41.2.4.37a2,2,0,0,0-.44,0c-.76,0-1.15.35-1.15.91a.74.74,0,0,0,.8.75.87.87,0,0,0,.84-.53c.05-.12.06-.2.11-.2s0,.06,0,.18a2.19,2.19,0,0,0,0,.49h.71V29C11.48,28.21,11.2,27.63,10.34,27.63Zm-.23,2.05c-.22.05-.34,0-.34-.17s.21-.29.51-.29h.26A.68.68,0,0,1,10.11,29.68Z"/><rect class="cls-1" x="13.03" y="26.9" width="0.94" height="3.38"/><path class="cls-1" d="M15,29c0-.24.22-.45.62-.45a1.71,1.71,0,0,1,.86.26v-.91a1.45,1.45,0,0,0-1-.26,1.21,1.21,0,0,0-1.3,1.31,1.25,1.25,0,0,0,1.3,1.4,1.5,1.5,0,0,0,1-.33v-.85a1.68,1.68,0,0,1-.86.28C15.18,29.44,15,29.23,15,29Z"/><path class="cls-1" d="M18.4,27.63a.9.9,0,0,0-.8.6c0,.09-.06.15-.1.14s0-.11,0-.18a3.13,3.13,0,0,0,.14-.9,1.21,1.21,0,0,0,0-.39h-.82v3.38h.95V29c0-.21.08-.58.32-.58s.26.15.26.44v1.43h.94V28.91C19.26,28.24,19.15,27.63,18.4,27.63Z"/><path class="cls-1" d="M19.56,27.69v2.59h1V27.69a1,1,0,0,1-.47.09A1.1,1.1,0,0,1,19.56,27.69Z"/><ellipse class="cls-1" cx="20.03" cy="27.25" rx="0.58" ry="0.38"/><path class="cls-1" d="M11.78,27.69v2.59h1V27.69a1,1,0,0,1-.47.09A1.05,1.05,0,0,1,11.78,27.69Z"/><ellipse class="cls-1" cx="12.25" cy="27.25" rx="0.58" ry="0.38"/><path class="cls-1" d="M26.6,27.63a.88.88,0,0,0-.8.57c-.07.13-.06.17-.11.17s0-.11,0-.23a1,1,0,0,0,0-.45H25V31H26V30a.72.72,0,0,0,.63.39c.68,0,1-.58,1-1.35S27.23,27.63,26.6,27.63Zm-.26,2.1c-.21,0-.37-.28-.37-.66s.16-.66.37-.66.37.24.37.66S26.61,29.73,26.34,29.73Z"/></svg>