<svg id="Layer_1" data-name="Layer 1" xmlns="http://www.w3.org/2000/svg" viewBox="0 0 32 32"><defs><style>.cls-1{fill:#959291;}</style></defs><path class="cls-1" d="M26.79,27.26H5.21a.47.47,0,0,1-.47-.47h0V5.21a.46.46,0,0,1,.46-.47H26.79a.45.45,0,0,1,.47.45v21.6a.46.46,0,0,1-.44.47Zm-.47-.94V22.58H5.68v3.74ZM5.68,21.63H17.87V5.69H5.68ZM18.82,5.69V21.63h7.5V5.69ZM24,8.5H21.15A.49.49,0,0,1,20.68,8a.51.51,0,0,1,.47-.48H24a.48.48,0,0,1,.48.46V8A.47.47,0,0,1,24,8.5h0Zm0,2.82H21.15a.48.48,0,0,1,0-1H24a.48.48,0,0,1,.48.46v0a.47.47,0,0,1-.46.47h0Zm0,2.81H21.15a.47.47,0,0,1,0-.94H24a.47.47,0,0,1,.12.94H24ZM24,17H21.15a.48.48,0,0,1,0-.95H24a.47.47,0,0,1,.48.45v0A.48.48,0,0,1,24,17h0Zm0,2.82H21.15a.51.51,0,0,1-.47-.48.49.49,0,0,1,.47-.47H24a.47.47,0,0,1,.48.44v0a.48.48,0,0,1-.46.48h0Z"/></svg>