<svg xmlns="http://www.w3.org/2000/svg" xmlns:xlink="http://www.w3.org/1999/xlink" width="32" height="32" viewBox="0 0 32 32">
  <defs>
    <clipPath id="clip-Pie_Chart">
      <rect width="32" height="32"/>
    </clipPath>
  </defs>
  <g id="Pie_Chart" data-name="Pie Chart" clip-path="url(#clip-Pie_Chart)">
    <rect width="32" height="32" fill="none"/>
    <g id="Group_76" data-name="Group 76">
      <path id="Path_106" data-name="Path 106" d="M287.151,284.938H275.643a.531.531,0,0,1-.531-.531V272.89a.531.531,0,0,1,.531-.531,12.044,12.044,0,0,1,12.039,12.049A.531.531,0,0,1,287.151,284.938Zm-10.978-11.505V274.9l.076-.076a.531.531,0,0,1,.75.75l-.826.826v2.609l2.881-2.881a.531.531,0,1,1,.75.75l-3.631,3.631v2.609L278.7,280.6a.531.531,0,0,1,.75.75l-2.527,2.527h2.609l3.636-3.636a.531.531,0,0,1,.75.75l-2.886,2.886h2.609l.831-.831a.531.531,0,1,1,.75.75l-.08.08h1.47a11,11,0,0,0-10.435-10.444Z" transform="translate(-258.682 -269.093)" fill="#929292"/>
      <path id="Path_107" data-name="Path 107" d="M275.643,2.578h11.509a.531.531,0,0,1,.531.531,11.975,11.975,0,0,1-3.526,8.52,11.956,11.956,0,0,1-8.513,3.529.531.531,0,0,1-.531-.531V3.109A.531.531,0,0,1,275.643,2.578Zm.531,11.505A11,11,0,0,0,286.608,3.639H276.173Z" transform="translate(-258.682 15.372)" fill="#929292"/>
      <path id="Path_108" data-name="Path 108" d="M12.049,55.558a12.039,12.039,0,1,0,0,24.079.531.531,0,0,0,.531-.531V56.089a.531.531,0,0,0-.531-.531Zm-.531,23a10.978,10.978,0,0,1,0-21.931Z" transform="translate(1.832 -49.796)" fill="#929292"/>
    </g>
  </g>
</svg>
