<svg xmlns="http://www.w3.org/2000/svg" xmlns:xlink="http://www.w3.org/1999/xlink" width="32" height="32" viewBox="0 0 32 32">
  <defs>
    <clipPath id="clip-Portfolio">
      <rect width="32" height="32"/>
    </clipPath>
  </defs>
  <g id="Portfolio" clip-path="url(#clip-Portfolio)">
    <rect width="32" height="32" fill="none"/>
    <g id="Group_77" data-name="Group 77">
      <g id="Rectangle_57" data-name="Rectangle 57" transform="translate(4 2)" fill="none" stroke="#929292" stroke-linejoin="round" stroke-width="0.7">
        <rect width="24" height="28" stroke="none"/>
        <rect x="0.35" y="0.35" width="23.3" height="27.3" fill="none"/>
      </g>
      <line id="Line_57" data-name="Line 57" x2="13.776" transform="translate(10.5 16.5)" fill="none" stroke="#929292" stroke-linecap="round" stroke-width="0.7"/>
      <line id="Line_58" data-name="Line 58" x2="1" transform="translate(7.5 16.5)" fill="none" stroke="#929292" stroke-linecap="round" stroke-width="0.7"/>
      <line id="Line_59" data-name="Line 59" x2="13.776" transform="translate(10.5 19.5)" fill="none" stroke="#929292" stroke-linecap="round" stroke-width="0.7"/>
      <line id="Line_60" data-name="Line 60" x2="1" transform="translate(7.5 19.5)" fill="none" stroke="#929292" stroke-linecap="round" stroke-width="0.7"/>
      <line id="Line_61" data-name="Line 61" x2="13.776" transform="translate(10.5 22.5)" fill="none" stroke="#929292" stroke-linecap="round" stroke-width="0.7"/>
      <line id="Line_62" data-name="Line 62" x2="1" transform="translate(7.5 22.5)" fill="none" stroke="#929292" stroke-linecap="round" stroke-width="0.7"/>
      <g id="Rectangle_58" data-name="Rectangle 58" transform="translate(15.8 25)" fill="none" stroke="#929292" stroke-linejoin="round" stroke-width="0.7">
        <rect width="9" height="3" stroke="none"/>
        <rect x="0.35" y="0.35" width="8.3" height="2.3" fill="none"/>
      </g>
      <g id="Ellipse_28" data-name="Ellipse 28" transform="translate(14.2 4)" fill="none" stroke="#929292" stroke-width="0.7">
        <circle cx="2" cy="2" r="2" stroke="none"/>
        <circle cx="2" cy="2" r="1.65" fill="none"/>
      </g>
      <g id="Rectangle_56" data-name="Rectangle 56" transform="translate(13 7.661)" fill="none" stroke="#929292" stroke-width="0.7">
        <path d="M3.239,0h0A3.239,3.239,0,0,1,6.478,3.239v.212A1.619,1.619,0,0,1,4.858,5.071H1.619A1.619,1.619,0,0,1,0,3.451V3.239A3.239,3.239,0,0,1,3.239,0Z" stroke="none"/>
        <path d="M3.239.35h0A2.889,2.889,0,0,1,6.128,3.239v.176A1.306,1.306,0,0,1,4.822,4.721H1.656A1.306,1.306,0,0,1,.35,3.415V3.239A2.889,2.889,0,0,1,3.239.35Z" fill="none"/>
      </g>
    </g>
  </g>
</svg>
