<svg id="Layer_1" data-name="Layer 1" xmlns="http://www.w3.org/2000/svg" viewBox="0 0 32 32"><defs><style>.cls-1{fill:#949291;}</style></defs><path class="cls-1" d="M25.38,25.94H6.61A2.94,2.94,0,0,1,3.67,23V6.58A2.94,2.94,0,0,1,6.61,3.65h5.86a.59.59,0,0,1,.49.26l2.2,3.26H25.38a2.93,2.93,0,0,1,2.93,2.93V23A2.93,2.93,0,0,1,25.38,25.94ZM6.61,4.83A1.77,1.77,0,0,0,4.84,6.58V23a1.77,1.77,0,0,0,1.77,1.76H25.38A1.75,1.75,0,0,0,27.13,23V10.1a1.75,1.75,0,0,0-1.75-1.75H14.82a.6.6,0,0,1-.51-.27L12.16,4.83ZM16,21.25a.59.59,0,0,1-.58-.59h0v-7a.59.59,0,0,1,.66-.52.6.6,0,0,1,.52.52v7a.59.59,0,0,1-.59.59Zm3.53-3.52H12.47a.6.6,0,0,1-.59-.59.59.59,0,0,1,.59-.58h7a.59.59,0,1,1,0,1.17h0Z"/></svg>