<svg id="Layer_1" data-name="Layer 1" xmlns="http://www.w3.org/2000/svg" viewBox="0 0 32 32"><defs><style>.cls-1{fill:#949291;}</style></defs><path class="cls-1" d="M21.26,19.38l-1.38-.31c-.9-.2-1.44-1-1.64-2.41a5.15,5.15,0,0,0,.61-.53,5.81,5.81,0,0,0,.56-.65,6.22,6.22,0,0,0,.83-1.57,8.25,8.25,0,0,0,.46-1.79l.05-.08.06-.1a4.91,4.91,0,0,0,.34-1,5.68,5.68,0,0,0,.11-1.09,5.46,5.46,0,0,0-.38-2,5.56,5.56,0,0,0-1.05-1.66,5.17,5.17,0,0,0-1.52-1.11,4.62,4.62,0,0,0-2.91-.29,6.72,6.72,0,0,0-1,.35l-.35.06-.36.08a3.67,3.67,0,0,0-1.46.83A4.38,4.38,0,0,0,11.2,7.51a5.23,5.23,0,0,0-.44,1.79,6.21,6.21,0,0,0,.18,1.92c0,.13.07.27.11.4l.14.4a.22.22,0,0,0,.05.08.27.27,0,0,0,.08.07,6.87,6.87,0,0,0,.83,2.68,5.47,5.47,0,0,0,1.61,1.84c-.2,1.4-.74,2.21-1.64,2.41l-1.38.31a3.53,3.53,0,0,0-3.4,3.51v4a.54.54,0,0,0,.51.47h16.3a.54.54,0,0,0,.51-.5v-4A3.53,3.53,0,0,0,21.26,19.38ZM14,6.2l.28-.07h.45l.1,0a3.26,3.26,0,0,1,.78-.31,3.86,3.86,0,0,1,.84-.09A3.46,3.46,0,0,1,19.13,6.9,4.29,4.29,0,0,1,20.2,9.82V10a2.17,2.17,0,0,0-.71-.48,2.26,2.26,0,0,0-.86-.15h-3.5a.92.92,0,0,1-.29,0,.72.72,0,0,1-.26-.14A.86.86,0,0,1,14.39,9a.68.68,0,0,1-.14-.23A.66.66,0,0,0,14,8.49a.73.73,0,0,0-.75,0,.59.59,0,0,0-.2.33A5.38,5.38,0,0,1,12.62,10a5.19,5.19,0,0,1-.71,1A4.47,4.47,0,0,1,12.12,8,3,3,0,0,1,14,6.24Zm-.44,8.85a4.94,4.94,0,0,1-.83-1.4,8.22,8.22,0,0,1-.42-1.71,6,6,0,0,0,.85-1,5.86,5.86,0,0,0,.63-1.12l.08.05L14,10a2.26,2.26,0,0,0,.56.28,1.77,1.77,0,0,0,.61.1h3.51a1.26,1.26,0,0,1,.68.2,1.06,1.06,0,0,1,.43.53h0a6.47,6.47,0,0,1-.33,2.05,5.36,5.36,0,0,1-.78,1.7A4.2,4.2,0,0,1,17.46,16a2.8,2.8,0,0,1-1.47.4A2.67,2.67,0,0,1,14.73,16a3.52,3.52,0,0,1-1.14-1Zm1.17,2.09a2.49,2.49,0,0,0,.61.16,3.21,3.21,0,0,0,1.31,0,2.61,2.61,0,0,0,.61-.16,3.87,3.87,0,0,0,.54,1.35,4.33,4.33,0,0,0,.95,1.05l-2.68,3.84H16l-2.73-3.84a4.62,4.62,0,0,0,.95-1.07A4.26,4.26,0,0,0,14.73,17.14Zm8.9,9.19H8.37V22.89A2.34,2.34,0,0,1,9.1,21.1a2.45,2.45,0,0,1,1.77-.72l.5-.06,1-.25L15.12,24a1,1,0,0,0,.4.34,1.09,1.09,0,0,0,.5.13h0a1,1,0,0,0,.51-.13,1.23,1.23,0,0,0,.41-.34l2.72-3.91a3.73,3.73,0,0,0,1,.27l.46,0a2.46,2.46,0,0,1,1.78.72,2.39,2.39,0,0,1,.73,1.77v3.44Z"/></svg>