<svg id="Layer_1" data-name="Layer 1" xmlns="http://www.w3.org/2000/svg" viewBox="0 0 32 32"><defs><style>.cls-1{fill:#949291;}.cls-2,.cls-3,.cls-4{fill:none;}.cls-3,.cls-4{stroke:#949292;stroke-width:0.7px;}.cls-3{stroke-linecap:round;stroke-linejoin:round;}</style></defs><path class="cls-1" d="M22.8,28H9.18A2.86,2.86,0,0,1,6.33,25.1h0V6.89A2.86,2.86,0,0,1,9.14,4.05h8a.54.54,0,0,1,.4.17l7.94,8a.54.54,0,0,1,.17.4V25.1A2.85,2.85,0,0,1,22.8,28ZM9.14,5.19a1.7,1.7,0,0,0-1.7,1.7V25.1a1.7,1.7,0,0,0,1.7,1.7H22.8a1.7,1.7,0,0,0,1.7-1.7V12.82L16.84,5.16Zm15.93,8H17.13a.57.57,0,0,1-.57-.57h0v-8a.58.58,0,0,1,.57-.57.57.57,0,0,1,.57.57V12h7.4a.58.58,0,0,1,.57.57.57.57,0,0,1-.57.57h0Z"/><g id="Group_70" data-name="Group 70"><g id="Rectangle_32" data-name="Rectangle 32"><rect class="cls-2" x="11.18" y="16.19" width="9.57" height="6.22"/><rect class="cls-3" x="11.33" y="16.35" width="9.27" height="5.89"/></g><path id="Path_59" data-name="Path 59" class="cls-3" d="M20.6,21.1,20.44,21l-.65-.44-.72.65L17.63,20l-1.18.59-2-2-2.78,1.73-.37.21"/><g id="Ellipse_15" data-name="Ellipse 15"><ellipse class="cls-2" cx="18.79" cy="17.86" rx="0.65" ry="0.72"/><ellipse class="cls-4" cx="18.79" cy="17.86" rx="0.5" ry="0.56"/></g></g></svg>