<svg id="Layer_1" data-name="Layer 1" xmlns="http://www.w3.org/2000/svg" viewBox="0 0 32 32"><defs><style>.cls-1{fill:#939291;}</style></defs><path class="cls-1" d="M26.54,15.3H13.73a.71.71,0,0,0-.62.78.72.72,0,0,0,.62.63H26.54a.72.72,0,0,0,.7-.71A.71.71,0,0,0,26.54,15.3Z"/><path class="cls-1" d="M8,12.74A3.26,3.26,0,1,0,11.28,16,3.26,3.26,0,0,0,8,12.74Zm0,5.12A1.86,1.86,0,1,1,9.88,16h0A1.86,1.86,0,0,1,8,17.86Z"/><path class="cls-1" d="M26.54,6.54H13.73a.7.7,0,0,0,0,1.4H26.54a.7.7,0,0,0,0-1.4Z"/><path class="cls-1" d="M8,4a3.26,3.26,0,1,0,3.26,3.26A3.26,3.26,0,0,0,8,4ZM8,9.12A1.86,1.86,0,1,1,9.88,7.23,1.85,1.85,0,0,1,8,9.12Z"/><path class="cls-1" d="M26.54,24.07H13.73a.69.69,0,0,0-.69.69.71.71,0,0,0,.69.71H26.54a.72.72,0,0,0,.7-.71.68.68,0,0,0-.68-.69Z"/><path class="cls-1" d="M8,21.52a3.26,3.26,0,1,0,3.26,3.26h0A3.26,3.26,0,0,0,8,21.52Zm0,5.16a1.86,1.86,0,1,1,1.86-1.86h0A1.86,1.86,0,0,1,8,26.65Z"/></svg>