<svg id="Layer_1" data-name="Layer 1" xmlns="http://www.w3.org/2000/svg" viewBox="0 0 32 32"><defs><style>.cls-1{fill:#949291;}</style></defs><path class="cls-1" d="M16,5a12.56,12.56,0,0,0-4.5.84,11.92,11.92,0,0,0-3.67,2.2,10.68,10.68,0,0,0-2.51,3.31,9.17,9.17,0,0,0-.89,4,9.17,9.17,0,0,0,.46,2.94,9.85,9.85,0,0,0,1.36,2.71,13.73,13.73,0,0,1-.6,3.23,5.18,5.18,0,0,1-1.11,2,.5.5,0,0,0-.11.45.32.32,0,0,0,.14.14.36.36,0,0,0,.2.06h0a2.69,2.69,0,0,0,.7-.11c.42-.11,1-.19,1.6-.35s1.39-.38,2.12-.64a11.86,11.86,0,0,0,2.08-.95A12.65,12.65,0,0,0,20.5,25a11.84,11.84,0,0,0,3.67-2.2,10.71,10.71,0,0,0,2.51-3.31,9.51,9.51,0,0,0,0-8.11,10.83,10.83,0,0,0-2.51-3.31A12,12,0,0,0,20.5,5.85,12.37,12.37,0,0,0,16,5Zm0,20a11.17,11.17,0,0,1-2-.16,10.3,10.3,0,0,1-1.89-.49,11.7,11.7,0,0,0,1.37-.92.52.52,0,0,0,.21-.35.37.37,0,0,0-.21-.35.42.42,0,0,0-.27,0A.5.5,0,0,0,13,23c-.1.09-.35.26-.72.51l-1.19.76h0a12.19,12.19,0,0,1-2.83,1.21c-1,.3-1.86.52-2.51.66a7.94,7.94,0,0,0,.9-2.45A21,21,0,0,0,7,21a.33.33,0,0,0,0-.14.2.2,0,0,0,0-.11A9.22,9.22,0,0,1,5.7,18.25a8.63,8.63,0,0,1-.45-2.76,8.39,8.39,0,0,1,.84-3.75A9.59,9.59,0,0,1,8.37,8.63,11.26,11.26,0,0,1,11.8,6.55a12.08,12.08,0,0,1,8.38,0,11.26,11.26,0,0,1,3.43,2.08,9.59,9.59,0,0,1,2.31,3,8.79,8.79,0,0,1,0,7.5,9.78,9.78,0,0,1-2.31,3.07,11,11,0,0,1-3.43,2.05,11.36,11.36,0,0,1-4.19.77Z"/></svg>