<svg id="Layer_1" data-name="Layer 1" xmlns="http://www.w3.org/2000/svg" viewBox="0 0 32 32"><defs><style>.cls-1{fill:#949291;}</style></defs><path class="cls-1" d="M26.67,9a3.84,3.84,0,0,0-1-1.89l-.25-.23-.29-.2h0a0,0,0,0,1-.05,0l-.13-.08-.1,0h0A4.13,4.13,0,0,0,24,6.19a3.5,3.5,0,0,0-.91-.12H21.51V4.93a.45.45,0,0,0-.14-.33A.43.43,0,0,0,21,4.45a.44.44,0,0,0-.33.14.4.4,0,0,0-.15.34V6H11.47v-1A.52.52,0,0,0,11,4.45a.43.43,0,0,0-.32.14.4.4,0,0,0-.15.34V6H8.94A5.38,5.38,0,0,0,8.25,6a3.13,3.13,0,0,0-.68.2c-.23.11-.46.23-.68.36a3.87,3.87,0,0,0-.59.48A2.16,2.16,0,0,0,6,7.4l-.25.33-.21.39a2.66,2.66,0,0,0-.16.39,1,1,0,0,0-.08.23A1.8,1.8,0,0,1,5.27,9a2.36,2.36,0,0,0,0,.38,2.28,2.28,0,0,0,0,.37V23.86a3.4,3.4,0,0,0,.29,1.44,3.73,3.73,0,0,0,.78,1.18,3.69,3.69,0,0,0,2.55,1.07H23a3.37,3.37,0,0,0,1.44-.29,3.64,3.64,0,0,0,2.26-3.4V9ZM6.19,9.68V9.42a1.31,1.31,0,0,1,0-.28.45.45,0,0,1,.06-.27l.09-.27.16-.32c.06-.11.12-.2.18-.29l.17-.09L7,7.76a1.26,1.26,0,0,1,.24-.22l.27-.19a2.9,2.9,0,0,1,.68-.29,2.34,2.34,0,0,1,.74-.12h1.57V8a.45.45,0,0,0,.14.33.47.47,0,0,0,.37.14.45.45,0,0,0,.32-.14A.41.41,0,0,0,11.44,8v-1h9.14V8a.51.51,0,0,0,.13.33.51.51,0,0,0,.7,0A.45.45,0,0,0,21.55,8v-1h1.57a2.14,2.14,0,0,1,.79.12,2.83,2.83,0,0,1,.67.29l.26.19a1.65,1.65,0,0,1,.24.22,2.69,2.69,0,0,1,.48.63,3.12,3.12,0,0,1,.29.79,1.22,1.22,0,0,0,0,.27,1.22,1.22,0,0,1,0,.27v2.08H6.19V9.68ZM25.84,23.83a2.91,2.91,0,0,1-.21,1.1,2.75,2.75,0,0,1-1.49,1.49,2.85,2.85,0,0,1-1.08.21H8.91a2.83,2.83,0,0,1-1.07-.21,2.71,2.71,0,0,1-.82-.6,2.91,2.91,0,0,1-.58-.89,2.68,2.68,0,0,1-.22-1.08V12.69H25.89V23.83Z"/></svg>