<svg id="Layer_1" data-name="Layer 1" xmlns="http://www.w3.org/2000/svg" viewBox="0 0 32 32"><defs><style>.cls-1{fill:#949291;}</style></defs><path class="cls-1" d="M23.71,12.16a4,4,0,0,1-3.64-2.44L15.5,13.17a4.07,4.07,0,0,1,.78,2.33,3.82,3.82,0,0,1-1.13,2.8l4.91,3.59a4.12,4.12,0,0,1,1.4-1.79,4,4,0,0,1,5,6.11,3.84,3.84,0,0,1-2.83,1.22,3.71,3.71,0,0,1-2.8-1.19,3.89,3.89,0,0,1-1.14-2.83,4.17,4.17,0,0,1,0-.5,2,2,0,0,1,.09-.47l-5.22-3.78a3.92,3.92,0,0,1-5.2-.35,3.85,3.85,0,0,1-1.13-2.83A3.8,3.8,0,0,1,9.4,12.64a3.87,3.87,0,0,1,2.84-1.17,4,4,0,0,1,1.55.32,4.13,4.13,0,0,1,1.29.85l4.8-3.59a3.4,3.4,0,0,0-.09-.46,4.51,4.51,0,0,1,0-.52A3.86,3.86,0,0,1,21,5.26a4,4,0,0,1,5.64,0,3.75,3.75,0,0,1,1.12,2.81A3.86,3.86,0,0,1,26.54,11,3.91,3.91,0,0,1,23.71,12.16Zm0,14.75a3.39,3.39,0,1,0-2.34-1,3.38,3.38,0,0,0,2.34,1ZM12.26,12.16a3.43,3.43,0,0,0-3.43,3.42A3.44,3.44,0,0,0,12.22,19a3.29,3.29,0,0,0,2.4-1,3.22,3.22,0,0,0,1-2.41,3.33,3.33,0,0,0-1-2.41A3.25,3.25,0,0,0,12.26,12.16ZM23.71,4.77a3.37,3.37,0,0,0-2.4,1,3.3,3.3,0,0,0-1,3,2.15,2.15,0,0,0,.12.5h0a3.54,3.54,0,0,0,1.22,1.7,3.22,3.22,0,0,0,2,.68,3.38,3.38,0,0,0,2.46-1,3.27,3.27,0,0,0,1-2.44,3.28,3.28,0,0,0-1-2.41,3.43,3.43,0,0,0-2.46-1Zm3.16,7.93h.07l.15.06a.46.46,0,0,1,.13.18,10.81,10.81,0,0,1,.36,1.69,13.81,13.81,0,0,1,.07,1.7,12.44,12.44,0,0,1-.09,1.37A8.36,8.36,0,0,1,27.3,19a.3.3,0,0,1-.14.19.33.33,0,0,1-.22,0,.32.32,0,0,1-.18-.12.59.59,0,0,1-.05-.22,6.51,6.51,0,0,0,.26-1.3c0-.43.07-.85.07-1.3a14.73,14.73,0,0,0-.13-1.62c-.09-.52-.2-1-.34-1.55a.84.84,0,0,1,.08-.31A.22.22,0,0,1,26.87,12.7ZM18.62,5.4a11.92,11.92,0,0,0-1.33-.23A9.38,9.38,0,0,0,16,5.05a10.82,10.82,0,0,0-4.35.85A11.78,11.78,0,0,0,8.1,8.4,10.68,10.68,0,0,0,5.73,12a10.23,10.23,0,0,0-.85,4.3,10.44,10.44,0,0,0,.85,4.34,11,11,0,0,0,5.93,5.93,10.57,10.57,0,0,0,4.33.83,12,12,0,0,0,1.7-.13,10.15,10.15,0,0,0,1.63-.38.2.2,0,0,1,.21,0,.5.5,0,0,1,.14.15.37.37,0,0,1,0,.21.14.14,0,0,1-.12.14h0a14.63,14.63,0,0,1-1.74.4,9.91,9.91,0,0,1-1.81.16A11.38,11.38,0,0,1,11.43,27a11.82,11.82,0,0,1-6.22-6.2,11.44,11.44,0,0,1,0-9.07,12.23,12.23,0,0,1,6.26-6.27A11.16,11.16,0,0,1,16,4.54a8.28,8.28,0,0,1,1.41.08,11.46,11.46,0,0,1,1.42.27A.31.31,0,0,1,19,5a.54.54,0,0,1,0,.22.43.43,0,0,1-.16.14.32.32,0,0,1-.27,0Z"/></svg>