<svg id="Layer_1" data-name="Layer 1" xmlns="http://www.w3.org/2000/svg" viewBox="0 0 32 32"><defs><style>.cls-1{fill:#949291;}</style></defs><path class="cls-1" d="M29,11.11v13a1.63,1.63,0,0,1-1.61,1.64H4.63A1.63,1.63,0,0,1,3,24.12V11.68a3.66,3.66,0,0,1,.23-1.27L4.39,7.28a1.63,1.63,0,0,1,1.51-1h5a1.6,1.6,0,0,1,1.33.68,1.63,1.63,0,0,1,1.33-.68h4.94a1.63,1.63,0,0,1,1.33.68,1.6,1.6,0,0,1,1.33-.68h5a1.63,1.63,0,0,1,1.51,1l1.09,2.89A1.7,1.7,0,0,1,29,11.11ZM20.61,7.7l-.24.7.37,1.09h6.55l-.67-1.82a.58.58,0,0,0-.52-.34h-5A.52.52,0,0,0,20.61,7.7ZM13,7.7l-.24.7.37,1.09h6.45L19,7.7a.52.52,0,0,0-.52-.37H13.53A.52.52,0,0,0,13,7.7Zm14.91,3.41a.3.3,0,0,0,0-.16.87.87,0,0,1-.13-.15l0-.08a.49.49,0,0,0-.34-.13H12.75a.55.55,0,0,1-.52-.39l-.84-2.5a.52.52,0,0,0-.52-.37h-5a.51.51,0,0,0-.49.34L4.24,10.8a2.37,2.37,0,0,0-.16.88V24.12a.54.54,0,0,0,.55.55H27.4a.54.54,0,0,0,.52-.55Z"/></svg>