<svg xmlns="http://www.w3.org/2000/svg" xmlns:xlink="http://www.w3.org/1999/xlink" width="32" height="32" viewBox="0 0 32 32">
  <defs>
    <clipPath id="clip-Team">
      <rect width="32" height="32"/>
    </clipPath>
  </defs>
  <g id="Team" clip-path="url(#clip-Team)">
    <rect width="32" height="32" fill="none"/>
    <g id="Ellipse_24" data-name="Ellipse 24" transform="translate(10.7 4)" fill="none" stroke="#929292" stroke-width="0.7">
      <circle cx="5" cy="5" r="5" stroke="none"/>
      <circle cx="5" cy="5" r="4.65" fill="none"/>
    </g>
    <path id="Path_110" data-name="Path 110" d="M61.3,395.281" transform="translate(-38.686 -378.128)" fill="none" stroke="#929292" stroke-width="1"/>
    <g id="Subtraction_3" data-name="Subtraction 3" transform="translate(20.8 12.254)" fill="none">
      <path d="M8.525,9.85H2.083V5.407A3.987,3.987,0,0,0-.1,1.842,3.987,3.987,0,0,1,3.268,0H6.525a4,4,0,0,1,4,4V7.85A2,2,0,0,1,8.525,9.85Z" stroke="none"/>
      <path d="M 8.524809837341309 9.149600028991699 C 9.241519927978516 9.149600028991699 9.824609756469727 8.566510200500488 9.824609756469727 7.849800109863281 L 9.824609756469727 3.999599933624268 C 9.824609756469727 2.180189847946167 8.344419479370117 0.6999999284744263 6.525009632110596 0.6999999284744263 L 3.267909526824951 0.6999999284744263 C 2.378477334976196 0.6999999284744263 1.545000553131104 1.052669882774353 0.9325307607650757 1.667688488960266 C 2.090272665023804 2.547291994094849 2.782609462738037 3.917267560958862 2.782609462738037 5.407199859619141 L 2.782609462738037 9.149600028991699 L 8.524809837341309 9.149600028991699 M 8.524809837341309 9.849599838256836 L 2.082609415054321 9.849599838256836 L 2.082609415054321 5.407199859619141 C 2.082609415054321 3.896250009536743 1.246099472045898 2.53029990196228 -0.1004704907536507 1.842389941215515 C 0.6403295397758484 0.6882098913192749 1.89967954158783 -8.087157965519509e-08 3.267909526824951 -8.087157965519509e-08 L 6.525009632110596 -8.087157965519509e-08 C 8.730399131774902 -8.087157965519509e-08 10.52460956573486 1.794209957122803 10.52460956573486 3.999599933624268 L 10.52460956573486 7.849800109863281 C 10.52460956573486 8.952489852905273 9.627499580383301 9.849599838256836 8.524809837341309 9.849599838256836 Z" stroke="none" fill="#929292"/>
    </g>
    <g id="Subtraction_2" data-name="Subtraction 2" transform="translate(0.399 12.25)" fill="none">
      <path d="M8.443,9.85H2a2,2,0,0,1-2-2V4A4,4,0,0,1,4,0H7.258a3.987,3.987,0,0,1,3.368,1.842A3.986,3.986,0,0,0,8.443,5.407V9.849Z" stroke="none"/>
      <path d="M 7.742896556854248 9.149600028991699 L 7.742896556854248 5.407199859619141 C 7.742896556854248 3.917267560958862 8.435244560241699 2.547290563583374 9.59298038482666 1.667683482170105 C 8.980514526367188 1.052669882774353 8.147036552429199 0.6999999284744263 7.257596492767334 0.6999999284744263 L 4.000496387481689 0.6999999284744263 C 2.181086540222168 0.6999999284744263 0.7008965015411377 2.180189847946167 0.7008965015411377 3.999599933624268 L 0.7008965015411377 7.849800109863281 C 0.7008965015411377 8.566510200500488 1.283986449241638 9.149600028991699 2.000696420669556 9.149600028991699 L 7.742896556854248 9.149600028991699 M 8.442896842956543 9.849599838256836 L 8.441896438598633 9.849599838256836 L 2.000696420669556 9.849599838256836 C 0.8980064988136292 9.849599838256836 0.0008965081651695073 8.952489852905273 0.0008965081651695073 7.849800109863281 L 0.0008965081651695073 3.999599933624268 C 0.0008965081651695073 1.794209957122803 1.795106530189514 -8.087157965519509e-08 4.000496387481689 -8.087157965519509e-08 L 7.257596492767334 -8.087157965519509e-08 C 8.626316070556641 -8.087157965519509e-08 9.885526657104492 0.6887398958206177 10.6259765625 1.842389941215515 C 9.279256820678711 2.530380010604858 8.442896842956543 3.895779848098755 8.442896842956543 5.407199859619141 L 8.442896842956543 9.848600387573242 L 8.442896842956543 9.849599838256836 Z" stroke="none" fill="#929292"/>
    </g>
    <g id="Ellipse_26" data-name="Ellipse 26" transform="translate(22.053 5.5)" fill="none" stroke="#929292" stroke-width="0.7">
      <circle cx="3.518" cy="3.518" r="3.518" stroke="none"/>
      <circle cx="3.518" cy="3.518" r="3.168" fill="none"/>
    </g>
    <g id="Ellipse_27" data-name="Ellipse 27" transform="translate(2.353 5.5)" fill="none" stroke="#929292" stroke-width="0.7">
      <circle cx="3.518" cy="3.518" r="3.518" stroke="none"/>
      <circle cx="3.518" cy="3.518" r="3.168" fill="none"/>
    </g>
  </g>
</svg>
