<svg xmlns="http://www.w3.org/2000/svg" xmlns:xlink="http://www.w3.org/1999/xlink" width="32" height="32" viewBox="0 0 32 32">
  <defs>
    <clipPath id="clip-Testimonial">
      <rect width="32" height="32"/>
    </clipPath>
  </defs>
  <g id="Testimonial" clip-path="url(#clip-Testimonial)">
    <rect width="32" height="32" fill="none"/>
    <g id="Group_71" data-name="Group 71">
      <path id="Path_62" data-name="Path 62" d="M22.992.5A1.71,1.71,0,0,0,21.775,0H1.721A1.72,1.72,0,0,0,0,1.721V8.306A1.722,1.722,0,0,0,1.377,9.993v.814a.6.6,0,0,0,.191.439.6.6,0,0,0,.408.158h.009a.594.594,0,0,0,.485-.266l.843-1.264,0-.007h0a.342.342,0,0,0-.006-.376.356.356,0,0,0-.06-.068.339.339,0,0,0-.121-.067h0l-.01,0h0A.344.344,0,0,0,3,9.34H3a.345.345,0,0,0-.156.051l0,0a.348.348,0,0,0-.067.057l0,0a.43.43,0,0,0-.034.045L2.065,10.5V9.683a.345.345,0,0,0-.344-.344A1.036,1.036,0,0,1,.688,8.306V1.721A1.036,1.036,0,0,1,1.721.688H21.775a1.036,1.036,0,0,1,1.033,1.033V8.306a1.036,1.036,0,0,1-1.033,1.033H4.4a.344.344,0,0,0,0,.688H21.775A1.721,1.721,0,0,0,23.5,8.306V1.721A1.71,1.71,0,0,0,22.992.5Zm0,0" transform="translate(4 9.004)" fill="#929292"/>
      <path id="Path_63" data-name="Path 63" d="M30.344,30.688H50.4a.344.344,0,0,0,0-.688H30.344a.344.344,0,0,0,0,.688Zm0,0" transform="translate(-24.623 -19.619)" fill="#929292"/>
      <path id="Path_64" data-name="Path 64" d="M30.344,60.688H50.4a.344.344,0,1,0,0-.688H30.344a.344.344,0,1,0,0,.688Zm0,0" transform="translate(-24.623 -48.242)" fill="#929292"/>
      <path id="Path_65" data-name="Path 65" d="M30.344,90.688h4.91a.344.344,0,1,0,0-.688h-4.91a.344.344,0,1,0,0,.688Zm0,0" transform="translate(-24.623 -76.866)" fill="#929292"/>
      <path id="Path_72" data-name="Path 72" d="M389.315,96.452a.661.661,0,0,0-.54-.455l-.357-.051-.164-.326a.665.665,0,0,0-1.189,0l-.164.326-.357.051a.666.666,0,0,0-.366,1.14l.25.239-.06.344a.665.665,0,0,0,.961.706l.331-.171.331.171a.665.665,0,0,0,.961-.706l-.06-.344.25-.239A.661.661,0,0,0,389.315,96.452Zm-1.032.553a.344.344,0,0,0-.1.308l.084.479-.447-.231a.343.343,0,0,0-.316,0l-.447.231.084-.479a.344.344,0,0,0-.1-.308l-.349-.334.488-.07a.344.344,0,0,0,.259-.186l.224-.446.224.446a.344.344,0,0,0,.259.186l.488.07Zm0,0" transform="translate(-364.261 -81.878)" fill="#929292"/>
      <path id="Path_73" data-name="Path 73" d="M300.788,96.452a.661.661,0,0,0-.54-.455l-.357-.051-.164-.326a.665.665,0,0,0-1.189,0l-.164.326-.357.051a.665.665,0,0,0-.366,1.14l.25.239-.06.344a.665.665,0,0,0,.961.706l.331-.17.33.17a.665.665,0,0,0,.961-.706l-.06-.344.25-.239A.66.66,0,0,0,300.788,96.452Zm-1.032.553a.345.345,0,0,0-.1.308l.084.479-.447-.231a.343.343,0,0,0-.316,0l-.447.231.084-.479a.345.345,0,0,0-.1-.308l-.349-.334.488-.07a.344.344,0,0,0,.259-.186l.224-.446.224.446a.344.344,0,0,0,.259.186l.488.07Zm0,0" transform="translate(-279.796 -81.878)" fill="#929292"/>
      <path id="Path_74" data-name="Path 74" d="M212.6,96.452a.661.661,0,0,0-.54-.455l-.357-.051-.164-.326a.665.665,0,0,0-1.189,0l-.164.326L209.83,96a.665.665,0,0,0-.366,1.14l.25.239-.06.344a.664.664,0,0,0,.96.706l.331-.171.331.171a.665.665,0,0,0,.96-.706l-.06-.344.25-.239A.661.661,0,0,0,212.6,96.452Zm-1.032.553a.344.344,0,0,0-.1.308l.084.479-.447-.231a.345.345,0,0,0-.316,0l-.447.231.084-.479a.344.344,0,0,0-.1-.308l-.349-.334.488-.07a.344.344,0,0,0,.259-.186l.224-.446.224.446a.344.344,0,0,0,.259.186l.488.07Zm0,0" transform="translate(-195.656 -81.878)" fill="#929292"/>
      <g id="Group_29" data-name="Group 29" transform="translate(-0.755 -3)">
        <path id="Path_52" data-name="Path 52" d="M40.428,92.026h0a.49.49,0,0,0,0,.981h.012a.49.49,0,0,0,0-.981Z" transform="translate(-25.179 -66.851)" fill="#929292"/>
        <path id="Path_53" data-name="Path 53" d="M63.071,92.026h0a.49.49,0,0,0,0,.981h.012a.49.49,0,0,0,0-.981Z" transform="translate(-46.342 -66.851)" fill="#929292"/>
        <path id="Path_54" data-name="Path 54" d="M85.714,92.026h0a.49.49,0,0,0,0,.981h.012a.49.49,0,0,0,0-.981Z" transform="translate(-67.504 -66.851)" fill="#929292"/>
      </g>
    </g>
  </g>
</svg>
