<svg id="Layer_1" data-name="Layer 1" xmlns="http://www.w3.org/2000/svg" viewBox="0 0 32 32"><defs><style>.cls-1{fill:#939291;}</style></defs><path class="cls-1" d="M16,3.07A12.93,12.93,0,1,0,28.93,16h0A12.94,12.94,0,0,0,16,3.07Zm0,24.79A11.86,11.86,0,1,1,27.86,16,11.86,11.86,0,0,1,16,27.86Z"/><path class="cls-1" d="M21.14,15.55,13.59,10.7a.48.48,0,0,0-.54,0,.52.52,0,0,0-.29.47v9.68a.55.55,0,0,0,.29.48.54.54,0,0,0,.25.06.48.48,0,0,0,.29-.09l7.55-4.85a.55.55,0,0,0,.25-.45A.58.58,0,0,0,21.14,15.55Zm-7.3,4.32V12.18l6,3.87Z"/></svg>